<svg width="891" height="280" viewBox="0 0 891 280" fill="none" xmlns="http://www.w3.org/2000/svg">
<path d="M890.674 0H0V280H890.674V0Z" fill="black"/>
<path d="M188.003 180.168V121.547H222.605V100.215H128.207V121.547H162.808V180.168H188.003ZM257.883 100.215H232.688V180.168H257.883V100.215ZM276.32 100.215V180.168H299.5V135.993L342.668 180.168H364.168V100.215H340.988V144.055L298.828 100.215H276.32ZM413.687 149.934L442.745 180.168H475.163L434.683 138.512L473.652 100.215H443.081L413.687 130.281H406.968V100.215H382.613V180.168H406.968V149.934H413.687ZM525.278 98.0316C492.524 98.0316 472.872 116.509 472.872 140.36C472.872 164.211 492.524 182.688 525.278 182.688C557.863 182.688 577.516 164.211 577.516 140.36C577.516 116.509 557.863 98.0316 525.278 98.0316ZM525.278 163.203C508.985 163.203 498.571 153.461 498.571 140.36C498.571 127.258 508.985 117.684 525.278 117.684C541.402 117.684 551.984 127.258 551.984 140.36C551.984 153.461 541.402 163.203 525.278 163.203ZM669.881 100.215H589.088V180.168H613.444V152.285H666.353V134.648H613.444V120.54H669.881V100.215ZM761.574 100.215H680.782V180.168H705.138V152.285H758.048V134.648H705.138V120.54H761.574V100.215Z" fill="white"/>
</svg>
